<svg xmlns="http://www.w3.org/2000/svg" width="100" height="100" viewBox="0 0 120 120" enable-background="new 0 0 120 120"><path d="M21.729 5.935v106.86h76v-106.86h-76zm72.316 103.635h-69.091v-100.369h69.091v100.369z"/><circle cx="40.658" cy="21.173" r="6.026"/><path d="M51.714 33.801h-21.693c.019-3.448 1.969-6.477 4.91-8.237 1.144 1.792 3.271 2.997 5.706 2.997 2.523 0 4.717-1.293 5.827-3.192 3.134 1.725 5.229 4.852 5.25 8.432z"/><rect x="41.306" y="41.171" width="48.363" height="2.764"/><rect x="70.74" y="13.765" width="18.929" height="2.764"/><rect x="70.74" y="18.832" width="18.929" height="2.764"/><rect x="30.021" y="46.929" width="59.648" height="2.764"/><rect x="30.021" y="52.686" width="59.648" height="2.764"/><rect x="30.021" y="58.444" width="59.648" height="2.763"/><rect x="30.021" y="64.201" width="59.648" height="2.764"/><rect x="30.021" y="69.959" width="59.648" height="2.764"/><rect x="30.021" y="75.717" width="59.648" height="2.764"/><rect x="30.021" y="81.475" width="59.648" height="2.764"/><rect x="30.021" y="87.231" width="59.648" height="2.764"/><rect x="30.021" y="92.989" width="25.679" height="2.764"/><rect x="68.788" y="101.855" width="20.727" height="2.764"/></svg>